<?xml version="1.0" encoding="utf-8"?>
<!-- Generator: Adobe Illustrator 16.0.0, SVG Export Plug-In . SVG Version: 6.00 Build 0)  -->
<!DOCTYPE svg PUBLIC "-//W3C//DTD SVG 1.1//EN" "http://www.w3.org/Graphics/SVG/1.1/DTD/svg11.dtd">
<svg version="1.1" id="Layer_1" xmlns="http://www.w3.org/2000/svg" xmlns:xlink="http://www.w3.org/1999/xlink" x="0px" y="0px"
	 width="300px" height="280px" viewBox="0 0 300 280" style="enable-background:new 0 0 300 280;" xml:space="preserve">
<style type="text/css">
<![CDATA[
	.st0{clip-path:url(#SVGID_2_);fill:url(#SVGID_3_);}
	.st1{clip-path:url(#SVGID_5_);fill:#010101;}
]]>
</style>
<g>
	<defs>
		<path id="SVGID_1_" d="M231.4,128.6L231.4,128.6l0,40.1c0,2.8,2.4,5.1,5,5.1c2.8,0,5-2.3,5-5.1l0-40.1c0-2.8-2.3-5.1-5-5.1
			C233.5,123.6,231.4,125.8,231.4,128.6 M51.5,157.6c0-4.5,4.1-7,9.8-7c4.2,0,7.2,0.6,11.3,1.6v10.4c-0.9,0.7-4.4,2.9-10.9,2.9
			C55.1,165.4,51.5,162.6,51.5,157.6 M48.4,125.5c-2.5,1.1-3.3,3-3.3,4.6c0,2.9,2.7,5.1,6.9,3.7c2.6-0.9,6.4-2.1,10.2-2.1
			c7.3,0,10.4,2.7,10.4,9.1v3.1c-4.3-1-7.5-1.6-11.9-1.6c-12.7,0-18.6,6.9-19,14.7v1.8c0.4,8.7,6.8,15.3,19.2,15.3
			c9.8,0,16.9-3.5,19.5-5.3c1.4-0.9,1.8-2,1.8-3.6l0-24.4c0-12.7-7.4-18.2-19.4-18.2C57.1,122.7,51.2,124.2,48.4,125.5 M145.4,157.6
			L145.4,157.6c0-4.5,4.1-7,9.8-7c4.2,0,7.2,0.6,11.3,1.6v10.4c-0.9,0.7-4.4,2.9-10.9,2.9C149.1,165.4,145.4,162.6,145.4,157.6
			 M142.5,125.5c-2.5,1.1-3.3,3-3.3,4.6c0,2.9,2.7,5.1,6.9,3.7c2.6-0.9,6.4-2.1,10.2-2.1c7.3,0,10.4,2.7,10.4,9.1v3.1
			c-4.3-1-7.5-1.6-11.9-1.6c-13.1,0-19,7.4-19,15.6c0,9.2,6.4,16.2,19.2,16.2c9.7,0,16.9-3.5,19.5-5.3c1.4-0.9,1.8-2,1.8-3.6v-24.4
			c0-12.7-7.4-18.2-19.4-18.2C151.1,122.7,145.2,124.2,142.5,125.5 M184.8,127.9c-1.4,0.9-2,1.9-2,3.8l0,36.8c0,2.8,2.4,5.1,5,5.1
			c2.8,0,5-2.3,5-5.1l0-33.6c2.1-1.3,6.6-2.6,11.2-2.6c5.8,0,10.9,3.2,10.9,10.7v25.6c0,2.8,2.3,5.1,5,5.1c2.9,0,5-2.3,5-5.1v-26
			c0-12.7-6.9-19.8-20.5-19.8C194.4,122.7,187.5,125.8,184.8,127.9 M98,153.6c-0.3-2.9-0.2-8.4,0-11c0.4-6.8,3.8-10.4,10.9-10.4
			c4.9,0,9.6,1.7,11.5,2.9v26.1c-1.9,1.4-6.7,3.4-10.8,3.4C102.4,164.6,98.6,160.8,98,153.6 M120.4,111.4v14.1
			c-3.1-1.4-7.8-2.7-12.3-2.7c-12.1,0-19,7.2-20,18.8c-0.3,3.4-0.3,10,0,13.3c1,11.5,8.7,19.3,21.4,19.3c9.1,0,16.7-4,19.1-5.8
			c1.5-1,1.8-2.1,1.8-3.8v-53.2c0-2.8-2.2-5.1-5-5.1C122.7,106.3,120.4,108.6,120.4,111.4 M230.7,111.4c0,3.1,2.4,5.7,5.6,5.7
			c3.1,0,5.5-2.6,5.5-5.7c0-3.1-2.4-5.5-5.5-5.5C233.1,105.8,230.7,108.3,230.7,111.4"/>
	</defs>
	<clipPath id="SVGID_2_">
		<use xlink:href="#SVGID_1_"  style="overflow:visible;"/>
	</clipPath>
	
		<linearGradient id="SVGID_3_" gradientUnits="userSpaceOnUse" x1="0" y1="280" x2="1" y2="280" gradientTransform="matrix(200.1472 0 0 -68.3333 41.75 19273.3164)">
		<stop  offset="0" style="stop-color:#1594C4"/>
		<stop  offset="0.4466" style="stop-color:#505AA8"/>
		<stop  offset="0.7252" style="stop-color:#6852A2"/>
		<stop  offset="1" style="stop-color:#BF1E6A"/>
	</linearGradient>
	<rect x="41.7" y="105.8" class="st0" width="200.1" height="68.3"/>
</g>
<g>
	<defs>
		<rect id="SVGID_4_" width="300" height="280"/>
	</defs>
	<clipPath id="SVGID_5_">
		<use xlink:href="#SVGID_4_"  style="overflow:visible;"/>
	</clipPath>
	<path class="st1" d="M253.7,109.1l1.2,4.6l1.2-4.6c0.1-0.3,0.3-0.6,0.6-0.6c0.4,0,0.6,0.2,0.7,0.6l0.8,4.7c0,0.2-0.1,0.5-0.3,0.5
		c-0.2,0-0.4-0.1-0.4-0.3l-0.8-4.7l-1.2,4.4c-0.1,0.4-0.3,0.6-0.7,0.6c-0.4,0-0.6-0.2-0.7-0.6l-1.2-4.4l-0.8,4.7
		c0,0.2-0.2,0.4-0.5,0.3c-0.2-0.1-0.3-0.3-0.3-0.5l0.8-4.7c0.1-0.4,0.4-0.6,0.7-0.6S253.6,108.7,253.7,109.1 M249.4,114
		c0,0.2-0.2,0.4-0.4,0.4c-0.2,0-0.4-0.2-0.4-0.4l0-4.6H247c-0.2,0-0.4-0.1-0.4-0.4c0-0.2,0.2-0.4,0.4-0.4h4c0.2,0,0.4,0.2,0.4,0.4
		c0,0.2-0.2,0.4-0.4,0.4h-1.6V114z"/>
</g>
</svg>
