<?xml version="1.0" encoding="utf-8"?>
<!-- Generator: Adobe Illustrator 16.0.0, SVG Export Plug-In . SVG Version: 6.00 Build 0)  -->
<!DOCTYPE svg PUBLIC "-//W3C//DTD SVG 1.1//EN" "http://www.w3.org/Graphics/SVG/1.1/DTD/svg11.dtd">
<svg version="1.1" id="Layer_1" xmlns="http://www.w3.org/2000/svg" xmlns:xlink="http://www.w3.org/1999/xlink" x="0px" y="0px"
	 width="300px" height="280px" viewBox="0 0 300 280" style="enable-background:new 0 0 300 280;" xml:space="preserve">
<style type="text/css">
<![CDATA[
	.st0{clip-path:url(#SVGID_2_);fill:#8B0304;}
	.st1{fill:#FEC46F;}
	.st2{clip-path:url(#SVGID_2_);fill-rule:evenodd;clip-rule:evenodd;fill:#FEC46F;}
	.st3{clip-path:url(#SVGID_2_);fill:#FEC46F;}
]]>
</style>
<rect x="150" y="76.4" class="st1" width="108.1" height="107.6"/>
<g>
	<defs>
		<rect id="SVGID_1_" width="300" height="280"/>
	</defs>
	<clipPath id="SVGID_2_">
		<use xlink:href="#SVGID_1_"  style="overflow:visible;"/>
	</clipPath>
	<path class="st0" d="M150,184.1V76.8c62.4-0.3,108.3,50.4,108.3,107.3H150z"/>
	<polygon class="st0" points="150,136.5 150,184.1 156.8,137.1 	"/>
	<polygon class="st3" points="189.8,158.8 247.9,137.6 194.9,171 	"/>
	<polygon class="st3" points="169.5,140.9 206.4,92 180.8,148.4 	"/>
	<polygon class="st0" points="194.9,170.7 150,184.1 189.8,158.8 	"/>
	<polygon class="st3" points="169.5,140.9 150,184.1 156.8,136.8 	"/>
	<polygon class="st0" points="180.6,148.4 150,184.1 169.5,140.9 	"/>
	<polygon class="st3" points="189.8,158.8 150,184.1 180.8,148.4 	"/>
	<polygon class="st3" points="197,184.1 150,184.1 194.9,170.9 	"/>
	<rect x="41.7" y="76.4" class="st0" width="108.3" height="107.6"/>
	<path class="st3" d="M150,184.1V76.6C88.6,76.4,42,125,41.7,184.1H150z"/>
	<polygon class="st0" points="150,136.6 150,76.9 143.1,136.9 	"/>
	<polygon class="st3" points="150,136.6 150,184.1 142.9,136.9 	"/>
	<polygon class="st0" points="110.2,158.5 51,140.6 104.4,171 	"/>
	<polygon class="st0" points="130.2,140.9 92.3,92.8 118.7,148.6 	"/>
	<polygon class="st3" points="104.4,170.9 150,184.1 110.2,158.3 	"/>
	<polygon class="st0" points="130,141 150,184.1 142.9,136.9 	"/>
	<polygon class="st3" points="118.9,148.4 150,184.1 130,140.9 	"/>
	<polygon class="st0" points="110.6,158.3 150,184.1 118.7,148.3 	"/>
	<polygon class="st0" points="102.7,184.1 150,184.1 104.4,170.9 	"/>
	<rect x="41.7" y="184.1" class="st0" width="216.5" height="19.5"/>
	<polygon class="st3" points="150,136.5 150,76.9 156.9,137.1 	"/>
	<path class="st2" d="M239.8,187.3l-1.1,9h2.2L239.8,187.3L239.8,187.3z M60.6,187.3l-1.1,9h2.2L60.6,187.3L60.6,187.3z M59.3,185.5
		h2.8l2.4,16.7h-2.1L62,198h-2.7l-0.6,4.2h-2L59.3,185.5z M76.3,187.2v13.3h0.4c0.7,0,1.1-0.1,1.3-0.4c0.2-0.2,0.3-0.7,0.3-1.5V189
		c0-0.7-0.1-1.2-0.3-1.5c-0.2-0.2-0.7-0.4-1.3-0.4H76.3z M74.2,185.5h2.2c1.6,0,2.7,0.3,3.3,0.9c0.5,0.6,0.8,1.9,0.8,3.7v7.4
		c0,1.9-0.3,3.1-0.8,3.7c-0.5,0.6-1.6,0.9-3.3,0.9h-2.2V185.5z M92.6,185.5h2.1v16.7h-2.1V185.5z M106.2,185.5h6v1.8h-1.9v15h-2.1
		v-15h-1.9V185.5z M123,185.5h2.1l1.4,7.4h0.1l1.3-7.4h2l-2.5,9.8v7h-2.1v-7L123,185.5z M143.7,187.3l-1.1,9h2.2L143.7,187.3
		L143.7,187.3z M142.4,185.5h2.8l2.4,16.7h-2.1L145,198h-2.7l-0.6,4.2h-2L142.4,185.5z M172,194.3v6.3h0.5c0.7,0,1.2-0.1,1.4-0.4
		c0.2-0.3,0.4-0.8,0.4-1.6v-2.4c0-0.8-0.1-1.3-0.4-1.6c-0.2-0.2-0.7-0.4-1.4-0.4H172z M172,187.2v5.5h0.4c0.6,0,1.1-0.1,1.3-0.4
		c0.2-0.2,0.3-0.7,0.3-1.5V189c0-0.7-0.1-1.2-0.3-1.5c-0.2-0.2-0.7-0.4-1.3-0.4H172z M170,185.5h2.8c1.2,0,2.1,0.2,2.6,0.6
		c0.5,0.4,0.8,1.2,0.8,2.2v2.7c0,0.8-0.2,1.4-0.5,1.8c-0.3,0.4-0.8,0.6-1.5,0.7c0.7,0.1,1.3,0.3,1.6,0.7c0.3,0.4,0.5,1,0.5,1.7v3.5
		c0,1-0.3,1.7-0.7,2.2c-0.5,0.4-1.4,0.6-2.6,0.6H170V185.5z M188.6,185.5h2.1v16.7h-2.1V185.5z M204.4,187.2v5.6h0.4
		c0.6,0,1.1-0.1,1.3-0.4c0.2-0.2,0.3-0.8,0.3-1.5v-1.8c0-0.8-0.1-1.3-0.3-1.5c-0.2-0.2-0.7-0.4-1.3-0.4H204.4z M202.4,185.5h2.8
		c1.2,0,2.1,0.2,2.6,0.6c0.5,0.4,0.8,1.2,0.8,2.2v2.7c0,0.8-0.2,1.5-0.5,1.9c-0.3,0.4-0.9,0.6-1.7,0.7c0.9,0.1,1.5,0.3,1.8,0.7
		c0.3,0.4,0.5,1.1,0.5,2.1v5.8h-2.1v-5.9c0-0.8-0.1-1.3-0.3-1.6c-0.2-0.2-0.7-0.3-1.3-0.3h-0.5v7.8h-2V185.5z M220.6,185.5h2.1v15
		h2.9v1.8h-5V185.5z M238.5,185.5h2.8l2.4,16.7h-2.1l-0.5-4.3h-2.7l-0.6,4.3h-2L238.5,185.5z"/>
</g>
</svg>
