<svg version="1.1" id="Layer_1" xmlns:x="ns_extend;" xmlns:i="ns_ai;" xmlns:graph="ns_graphs;" xmlns="http://www.w3.org/2000/svg" xmlns:xlink="http://www.w3.org/1999/xlink" x="0px" y="0px" viewBox="0 0 291.2 50" style="enable-background:new 0 0 291.2 50;" xml:space="preserve">
 <style type="text/css">
  .st0{fill:#091C35;}
 </style>
 <metadata>
  <sfw xmlns="ns_sfw;">
   <slices>
   </slices>
   <sliceSourceBounds bottomLeftOrigin="true" height="50" width="291.2" x="-125.2" y="0.5">
   </sliceSourceBounds>
  </sfw>
 </metadata>
 <g>
  <path class="st0" d="M261.2,31.6c0-11.1,4.3-18.3,15-18.3c10.7,0,15,6.6,15,17.6v3.9h-23c0.6,4.9,2.5,8.8,10.6,8.8
		c8.1,0,5.6,0,10-1.3v6.2c-5.4,1.4-7.4,1.4-10,1.4c-15.7,0-17.7-11.4-17.7-18.3L261.2,31.6L261.2,31.6z M228.7,45.4v-7
		c6.4,3.9,9.6,5.3,14.8,5.3c5.1,0,6.1-2,6.1-4.2c0-2.2-1.8-3.8-8.2-5.2c-10-2.2-12.7-5.5-12.7-11.1c0-5.6,5-9.8,12.4-9.8
		c7.4,0,9.3,1.3,12.7,3.7v6.3c-5.2-2.5-9.6-3.7-13.4-3.7c-3.8,0-4.7,1.5-4.7,3.2c0,1.7,0.8,3.4,6.8,4.9c10.3,2.8,14.1,5.1,14.1,11.5
		c0,6.5-5,10.5-13.1,10.5C235.4,49.9,233.7,48.7,228.7,45.4L228.7,45.4z M80.7,31.6c0-11.1,5.4-18.3,15.6-18.3s14.5,5.8,14.5,14h-7
		c-0.3-4.4-1.7-7.7-7.2-7.7c-5.6,0-9,2.8-9,11.9c0,9.1,2.5,11.9,9,11.9c6.5,0,7-3.4,7.2-7.7h7c0,8.4-5.4,14-14.5,14
		S80.7,42.6,80.7,31.6z M185.7,31.6c0,10.4-4,18.3-15.3,18.3c-11.3,0-8.4-1.8-10.4-4.9v4.2h-7V0h7v18.3c2.1-3.1,5.6-4.9,10.4-4.9
		C181.7,13.3,185.7,21.3,185.7,31.6z M44.3,37.4c0-6,4.1-12.3,12.5-12.3c8.5,0,7.7,1.4,9.7,4.2v-9.1H48.4v-6.3h25.1V42h4.2v7H66.5
		v-3.5c-2.1,2.8-4.9,4.2-9.7,4.2C48.3,49.7,44.3,43.6,44.3,37.4L44.3,37.4z M190.3,37.4c0-6,4.1-12.3,12.5-12.3
		c8.5,0,7.7,1.4,9.7,4.2v-9.1h-18.1v-6.3h25.1V42h4.2v7h-11.1v-3.5c-2.1,2.8-4.9,4.2-9.7,4.2C194.4,49.7,190.3,43.6,190.3,37.4z
		 M124.3,28.5h5.4l9.7-14.5h8.5l-12,17.7l12,17.6h-8.5L129.7,35h-5.4v14.2h-7V0h7V28.5z M29,24.3V23c7-1,8.8-5.2,8.8-9.8
		s-4-11.9-13.9-11.9h-5.6v6.3h5.6c5.3,0,7,1.7,7,6.2c0,4.5-1.7,6.9-7,6.9H6.4v28.5h17.4c11.4,0,15.3-6.6,15.3-13.3
		C39.1,29.1,37,25.3,29,24.3z M66.4,37.5c0-3.5-2.5-5.9-7.7-5.9s-7.7,2.5-7.7,5.9c0,3.4,2.5,6,7.7,6S66.4,41,66.4,37.5z M212.4,37.5
		c0-3.5-2.5-5.9-7.7-5.9c-5.1,0-7.7,2.5-7.7,5.9c0,3.4,2.5,6,7.7,6C209.9,43.5,212.4,41,212.4,37.5z M178.7,31.6
		c0-8.4-2.5-11.9-9.3-11.9c-6.8,0-9.3,3.5-9.3,11.9c0,8.4,2.5,11.9,9.3,11.9C176.2,43.5,178.7,40,178.7,31.6z M23.9,42.8H13.5V27
		h10.4c6.3,0,8.4,1.7,8.4,8.3C32.3,41.9,30.2,42.8,23.9,42.8z M44.3,37.4L44.3,37.4L44.3,37.4C44.3,37.4,44.3,37.4,44.3,37.4z
		 M190.3,37.4L190.3,37.4L190.3,37.4C190.3,37.4,190.3,37.4,190.3,37.4z M284.3,28.5c-0.1-6.2-2.5-8.7-8.1-8.7
		c-5.6,0-7.8,3.1-8.1,8.7H284.3L284.3,28.5z M0,1.4V8h6.5v7h6.8V1.4H0z">
  </path>
 </g>
</svg>