<?xml version="1.0" encoding="utf-8"?>
<!-- Generator: Adobe Illustrator 19.2.1, SVG Export Plug-In . SVG Version: 6.00 Build 0)  -->
<svg version="1.1" id="layer" xmlns="http://www.w3.org/2000/svg" xmlns:xlink="http://www.w3.org/1999/xlink" x="0px" y="0px"
	 viewBox="0 0 652 652" style="enable-background:new 0 0 652 652;" xml:space="preserve">
<style type="text/css">
	.st0{fill:#040000;}
</style>
<g>
	<path class="st0" d="M556,425.7h26.2c25.3,0,37.9-12.5,37.9-37.9V256.3c0-25.3-12.5-37.8-37.9-37.8H556
		c-25.3,0-37.8,12.5-37.8,37.8v131.6C518.2,413.2,530.7,425.7,556,425.7 M558.9,260.6c0-4.9,2.3-7.3,7.3-7.3h5.8
		c5,0,7.3,2.3,7.3,7.3v122.9c0,4.9-2.3,7.3-7.3,7.3h-5.8c-5,0-7.3-2.3-7.3-7.3V260.6z"/>
	<path class="st0" d="M431,425.7h25c25.3,0,37.9-12.5,37.9-37.9v-38h-40.2v33.6c0,4.9-2.3,7.3-7.3,7.3h-5.2c-5,0-7.3-2.3-7.3-7.3
		V260.6c0-5,2.3-7.3,7.3-7.3h4.7c4.9,0,7.3,2.3,7.3,7.3v28.5h40.2v-32.9c0-25.3-12.5-37.9-37.9-37.9H431
		c-25.3,0-37.9,12.5-37.9,37.9v131.6C393.1,413.2,405.7,425.7,431,425.7"/>
	<path class="st0" d="M180.8,394.3h25.6l3.2,29.7h40.5l-26.8-203.8h-55.6L140.9,424h37L180.8,394.3z M193.6,270l9,88.8h-18.1
		L193.6,270z"/>
	<path class="st0" d="M313.2,353.2h18.9c25.3,0,37.9-12.5,37.9-37.9V258c0-25.3-12.5-37.9-37.9-37.9h-59.7V424h40.8V353.2z
		 M313.2,255.1h8.7c4.9,0,7.3,2.3,7.3,7.3V311c0,4.9-2.3,7.3-7.3,7.3h-8.7V255.1z"/>
	<path class="st0" d="M57.9,425.7h25c25.3,0,37.9-12.5,37.9-37.9v-38H80.6v33.6c0,4.9-2.3,7.3-7.3,7.3h-5.2c-5,0-7.3-2.3-7.3-7.3
		V260.6c0-5,2.3-7.3,7.3-7.3h4.7c4.9,0,7.3,2.3,7.3,7.3v28.5h40.2v-32.9c0-25.3-12.5-37.9-37.9-37.9H57.9
		c-25.3,0-37.9,12.5-37.9,37.9v131.6C20.1,413.2,32.6,425.7,57.9,425.7"/>
</g>
</svg>
