<svg version="1.1" id="Layer_1" xmlns="http://www.w3.org/2000/svg" xmlns:xlink="http://www.w3.org/1999/xlink" x="0px" y="0px" viewBox="0 0 249.4 136.2" style="enable-background:new 0 0 249.4 136.2;" xml:space="preserve">
 <style type="text/css">
  .st0{fill:#010101;}
	.st1{fill:#603494;}
 </style>
 <g id="Logo_and_Copy">
  <g>
   <path class="st0" d="M11.3,118.7v17.1H6.5v-17.1H0v-4.3h17.8v4.3H11.3z M24.1,135.8v-21.5h16.2v4.2H28.8v4.3h10.1v4.2H28.8v4.5
			h11.7v4.2L24.1,135.8L24.1,135.8L24.1,135.8z M57.6,136.2c-6.3,0-11-4.9-11-11.1v-0.1c0-6.1,4.6-11.1,11.2-11.1
			c4.1,0,6.5,1.3,8.5,3.3l-3,3.5c-1.7-1.5-3.4-2.4-5.5-2.4c-3.6,0-6.2,3-6.2,6.7v0.1c0,3.7,2.5,6.8,6.2,6.8c2.4,0,4-1,5.6-2.5l3,3
			C64.2,134.7,61.8,136.2,57.6,136.2z M86.4,135.8v-8.6h-8.7v8.6H73v-21.5h4.7v8.5h8.7v-8.5h4.7v21.5L86.4,135.8L86.4,135.8z
			 M114.6,135.8l-10.4-13.7v13.7h-4.7v-21.5h4.3l10.1,13.2v-13.2h4.7v21.5L114.6,135.8L114.6,135.8z M136.9,136.2
			c-6.6,0-11.4-4.9-11.4-11.1v-0.1c0-6.1,4.8-11.1,11.5-11.1c6.6,0,11.4,4.9,11.4,11.1v0.1C148.3,131.2,143.5,136.2,136.9,136.2z
			 M143.4,125.1c0-3.7-2.7-6.8-6.5-6.8c-3.8,0-6.4,3-6.4,6.7v0.1c0,3.7,2.7,6.8,6.5,6.8C140.7,131.8,143.4,128.8,143.4,125.1
			L143.4,125.1z M155.1,135.8v-21.5h4.7v17.2h10.7v4.3H155.1z M186.4,136.2c-6.6,0-11.4-4.9-11.4-11.1v-0.1
			c0-6.1,4.8-11.1,11.5-11.1c6.6,0,11.4,4.9,11.4,11.1v0.1C197.9,131.2,193.1,136.2,186.4,136.2z M192.9,125.1
			c0-3.7-2.7-6.8-6.5-6.8c-3.8,0-6.4,3-6.4,6.7v0.1c0,3.7,2.7,6.8,6.5,6.8C190.3,131.8,192.9,128.8,192.9,125.1L192.9,125.1z
			 M214.9,136.2c-6.7,0-11.3-4.7-11.3-11.1v-0.1c0-6.1,4.7-11.1,11.3-11.1c3.9,0,6.2,1,8.4,3l-3,3.6c-1.7-1.4-3.1-2.2-5.6-2.2
			c-3.4,0-6.2,3-6.2,6.7v0.1c0,3.9,2.7,6.8,6.5,6.8c1.7,0,3.2-0.4,4.5-1.3v-3.1h-4.7v-4.1h9.3v9.3
			C221.8,134.7,218.8,136.2,214.9,136.2z M241.2,127.3v8.6h-4.7v-8.5l-8.3-13h5.5l5.1,8.6l5.2-8.6h5.4L241.2,127.3z">
   </path>
   <path class="st1" d="M82.5,55.7c-0.6,3.8-1.6,7.5-3.3,11.1c-2.5,5.6-5.9,10.9-10.5,15.5C60,91.1,47,96.7,33.7,96.7H0.1V77.3h33.6
			c7.9,0,15.6-3,20.7-8.4c3.7-3.8,6.3-8.4,7.7-13.3L82.5,55.7L82.5,55.7z M82.5,41c-0.6-3.8-1.6-7.5-3.3-11.1
			c-2.5-5.6-5.9-10.9-10.5-15.5C60,5.6,47,0,33.7,0H0.1v19.3h33.6c7.9,0,15.6,3,20.7,8.4c3.7,3.8,6.3,8.4,7.7,13.3
			C62,41,82.5,41,82.5,41z M124.6,64.4L99,96.7H73.6l38.4-48.3L73.6,0H99l25.6,32.2L150.3,0h25.4l-38.4,48.3l38.4,48.3h-25.4
			L124.6,64.4z M187.2,55.7c1.3,4.9,3.9,9.5,7.7,13.3c5.2,5.4,12.8,8.4,20.7,8.4h33.6v19.3h-33.6c-13.3,0-26.3-5.6-35-14.4
			c-4.6-4.5-8-9.9-10.5-15.5c-1.7-3.6-2.8-7.3-3.3-11.1L187.2,55.7L187.2,55.7z M187.2,41c1.3-4.9,3.9-9.5,7.7-13.3
			c5.2-5.4,12.8-8.4,20.7-8.4h33.6V0h-33.6c-13.3,0-26.3,5.6-35,14.4c-4.6,4.5-8,9.9-10.5,15.5c-1.7,3.6-2.8,7.3-3.3,11.1L187.2,41
			L187.2,41z">
   </path>
  </g>
 </g>
</svg>