<svg version="1.1" id="Layer_1" xmlns="http://www.w3.org/2000/svg" xmlns:xlink="http://www.w3.org/1999/xlink" x="0px" y="0px" viewBox="0 0 217.8 72" style="enable-background:new 0 0 217.8 72;" xml:space="preserve">
 <style type="text/css">
  .st0{fill-rule:evenodd;clip-rule:evenodd;fill:#3DCD58;}
	.st1{fill-rule:evenodd;clip-rule:evenodd;fill:#FFFFFE;}
 </style>
 <desc>
  Created with Sketch.
 </desc>
 <rect class="st0" width="217.8" height="72">
 </rect>
 <g id="LOGOS">
  <g id="Group">
   <path id="Fill-1" class="st1" d="M29.5,40.2H24v-9.7c0-0.4,0-0.9-0.6-0.9c-0.6,0-0.6,0.5-0.6,0.9v9.7c0,0.8,0.1,0.9,1,0.9h5.7
			c0.4,0,0.9,0,0.9-0.5C30.4,40.2,29.9,40.2,29.5,40.2">
   </path>
   <path id="Fill-2" class="st1" d="M32,32.8c-0.5,0-0.5,0.5-0.5,0.8v7c0,0.4,0,0.8,0.5,0.8c0.5,0,0.5-0.4,0.5-0.8v-7
			C32.5,33.3,32.5,32.8,32,32.8">
   </path>
   <path id="Fill-3" class="st1" d="M32,30c-0.4,0-0.7,0.3-0.7,0.6c0,0.3,0.3,0.6,0.7,0.6c0.4,0,0.7-0.3,0.7-0.6
			C32.7,30.3,32.4,30,32,30">
   </path>
   <path id="Fill-4" class="st1" d="M36.2,31.1C36.2,31.1,36.2,31.1,36.2,31.1C36.2,31.1,36.2,31.1,36.2,31.1z M37.2,33h-1.1v-0.7
			c0-1,0.1-1.7,1.4-1.7c0,0,0.2,0,0.3,0c0.2,0,0.3,0,0.4,0c0.3,0,0.4-0.2,0.4-0.4c0,0,0-0.2-0.2-0.4c-0.2-0.1-0.8-0.2-1.3-0.2
			c-0.4,0-0.8,0.1-1.1,0.2c-0.3,0.2-0.6,0.4-0.8,0.7c-0.1,0.2-0.3,0.5-0.3,1.5V33h-0.9c-0.2,0-0.7,0-0.7,0.4c0,0.4,0.5,0.4,0.7,0.4
			H35v6.9c0,0.4,0,0.8,0.5,0.8c0.5,0,0.5-0.4,0.5-0.8v-6.9h1.1c0.4,0,0.7-0.1,0.7-0.4C37.9,33,37.5,33,37.2,33L37.2,33z">
   </path>
   <path id="Fill-5" class="st1" d="M39,36.4c0.1-1,0.9-2.8,2.9-2.8c2.5,0,2.7,2.1,2.8,2.8H39z M45.8,36.5c0,0,0-1-0.5-1.9
			c-0.3-0.5-0.7-0.9-1.1-1.2c-0.1,0-0.1-0.1-0.2-0.1c0,0-0.1,0-0.1-0.1c-0.1-0.1-0.2-0.1-0.4-0.2c0,0-0.1,0-0.1,0
			c-0.1,0-0.3-0.1-0.4-0.1c0,0-0.1,0-0.1,0c-0.2,0-0.4-0.1-0.5-0.1c0,0,0,0-0.1,0c-0.1,0-0.2,0-0.3,0c-1.3,0-2.3,0.4-3,1.2
			c-0.7,0.7-1,1.8-1,3.1c0,1.3,0.3,2.3,1,3.1c0.3,0.4,0.8,0.7,1.3,0.9c0.5,0.2,1.1,0.3,1.8,0.3c1.6,0,2.5-0.6,2.9-1.1
			c0.6-0.6,0.7-1.2,0.7-1.3c0-0.2-0.2-0.5-0.5-0.5c-0.2,0-0.4,0.1-0.5,0.4c-0.3,0.7-0.8,1.2-1.4,1.5c-0.4,0.2-0.8,0.3-1.2,0.3
			c-0.9,0-1.7-0.3-2.2-1C39.3,39,39,38.2,39,37.2h5.8C45.3,37.2,45.8,37.2,45.8,36.5L45.8,36.5z">
   </path>
   <path id="Fill-6" class="st1" d="M51.2,29.7c-0.6,0-0.6,0.5-0.6,0.9v9.9c0,0.4,0,0.9,0.6,0.9c0.6,0,0.6-0.5,0.6-0.9v-9.9
			C51.8,30.2,51.8,29.7,51.2,29.7">
   </path>
   <path id="Fill-7" class="st1" d="M70.5,35.7c0.4,0,0.6-0.3,0.6-0.6v-6.8h-1.2v6.8C69.9,35.3,70.2,35.7,70.5,35.7">
   </path>
   <path id="Fill-8" class="st1" d="M59.3,37.1c-0.1,0-0.2-0.1-0.2-0.1c0,0-0.1,0-0.1,0c-0.6-0.3-1.3-0.4-1.9-0.6
			c-0.7-0.1-1.3-0.3-1.7-0.5c-0.5-0.2-0.7-0.6-0.7-1c0-0.9,1.1-1.3,2.1-1.3c1.1,0,1.9,0.4,2.2,1.1c0.2,0.4,0.3,0.5,0.5,0.5
			c0.5,0,0.5-0.4,0.5-0.4c0-0.1-0.1-0.6-0.5-1.1c-0.3-0.3-0.6-0.5-1-0.7c-0.5-0.2-1.1-0.3-1.8-0.3c-1.2,0-2.1,0.3-2.6,1
			c-0.5,0.6-0.5,1.2-0.5,1.3c0,0.6,0.3,1.2,0.8,1.5c0.5,0.3,1.1,0.5,2.2,0.7c0.3,0.1,0.6,0.2,1,0.3l0,0c0.6,0.1,1.7,0.4,1.7,1.4
			c0,0.8-0.7,1.5-2.4,1.5c-1.2,0-2-0.5-2.4-1.4l0,0c-0.1-0.3-0.2-0.5-0.5-0.5c-0.1,0-0.3,0-0.4,0.1c-0.1,0.1-0.2,0.2-0.2,0.3
			c0,0.5,0.4,1.1,0.9,1.6c0.3,0.2,0.5,0.4,0.9,0.5c0.4,0.1,1,0.2,1.6,0.2c1.4,0,2.4-0.3,3-1c0.5-0.6,0.6-1.2,0.6-1.5
			C60.4,38.1,60.1,37.5,59.3,37.1">
   </path>
   <path id="Fill-9" class="st1" d="M84.3,33.7c-0.4-0.4-1.1-0.9-2.4-0.9c-1.7,0-2.4,0.8-2.9,1.4v-0.6c0-0.2,0-0.5-0.2-0.7
			c0,0,0,0-0.1,0c0,0,0,0,0,0c-0.1,0-0.2-0.1-0.3-0.1c-0.5,0-0.5,0.5-0.5,0.8v7c0,0.4,0,0.8,0.5,0.8c0.1,0,0.2,0,0.3-0.1
			c0,0,0,0,0,0c0,0,0,0,0.1,0c0.2-0.2,0.2-0.4,0.2-0.7v-3c0-1.3,0-2,0.3-2.5c0.2-0.4,0.6-0.8,1-1.1c0.4-0.3,0.9-0.4,1.4-0.4
			c0.7,0,1.4,0.3,1.7,0.8c0.3,0.4,0.4,1.1,0.4,1.7v4.5c0,0.2,0,0.5,0.2,0.7c0,0,0,0,0.1,0c0,0,0,0,0,0c0.1,0,0.2,0.1,0.3,0.1
			c0.5,0,0.5-0.5,0.5-0.8v-4.7C85,35.4,85,34.4,84.3,33.7">
   </path>
   <path id="Fill-10" class="st1" d="M72.2,29.5v1.2c2,0.7,3.4,2.5,3.4,4.7c0,2.8-2.2,5-5,5c-2.8,0-5-2.2-5-5c0-2.1,1.4-4,3.3-4.7
			v-1.2c-2.5,0.8-4.4,3.1-4.4,5.9c0,3.4,2.7,6.1,6.1,6.1c3.4,0,6.1-2.7,6.1-6.1C76.7,32.6,74.8,30.2,72.2,29.5">
   </path>
   <path id="Fill-11" class="st1" d="M116.7,30.8c-2-0.9-3.3-1.3-4.5-1.3c-1.3,0-2.1,0.5-2.1,1.2c0,2.1,7.2,1.5,7.2,6.4
			c0,2.7-2.3,4.3-5.4,4.3c-2.5,0-3.7-0.6-5.1-1.4v-3c2,1.3,3.3,1.8,4.8,1.8c1.3,0,2.1-0.5,2.1-1.3c0-2.3-7.2-1.5-7.2-6.5
			c0-2.4,2.1-4,5.4-4c1.6,0,3,0.3,4.8,1.1V30.8">
   </path>
   <path id="Fill-12" class="st1" d="M126.8,40.7c-1.2,0.4-2.2,0.6-3.2,0.6c-3.3,0-5.5-1.9-5.5-4.9c0-2.9,2.2-5,5.4-5
			c1,0,2.2,0.2,3.2,0.6v2.2c-0.8-0.4-1.7-0.6-2.4-0.6c-1.8,0-2.9,1.1-2.9,2.7c0,1.7,1.1,2.8,2.8,2.8c0.7,0,1.4-0.2,2.7-0.7V40.7">
   </path>
   <path id="Fill-13" class="st1" d="M152.8,35.4c0.1-1.3,0.9-2.1,2.1-2.1c1.2,0,1.9,0.8,2.1,2.1H152.8z M154.7,31.5
			c-2.9,0-5,2.1-5,5c0,2.9,2.2,4.9,5.5,4.9c0.7,0,2.5,0,4.2-1.3v-1.9c-1.4,1-2.3,1.3-3.5,1.3c-1.9,0-3-1-3.1-2.6h6.8
			C159.7,33.5,157.4,31.5,154.7,31.5L154.7,31.5z">
   </path>
   <polygon id="Fill-14" class="st1" points="160.7,41.2 163.7,41.2 163.7,31.7 160.7,31.7 		">
   </polygon>
   <path id="Fill-15" class="st1" d="M172,38.6c-0.6,0.6-1.1,0.8-1.8,0.8c-1.4,0-2.3-1.2-2.3-2.9c0-1.9,0.9-3,2.4-3
			c0.5,0,1.2,0.2,1.7,0.6V38.6z M172,27.1v5c-0.8-0.4-1.6-0.6-2.5-0.6c-2.7,0-4.6,2-4.6,4.9c0,2.8,1.9,4.9,4.4,4.9
			c1,0,1.8-0.3,2.6-0.9v0.8h3V27.1H172L172,27.1z">
   </path>
   <path id="Fill-16" class="st1" d="M179.4,35.4c0.1-1.3,0.9-2.1,2.1-2.1c1.2,0,1.9,0.8,2.1,2.1H179.4z M181.3,31.5
			c-2.9,0-5,2.1-5,5c0,2.9,2.2,4.9,5.5,4.9c0.7,0,2.5,0,4.2-1.3v-1.9c-1.4,1-2.3,1.3-3.5,1.3c-1.9,0-3-1-3.1-2.6h6.8
			C186.3,33.5,184,31.5,181.3,31.5L181.3,31.5z">
   </path>
   <path id="Fill-17" class="st1" d="M190.6,34.4L190.6,34.4c0.9-2,1.9-2.9,3.1-2.9c0.6,0,1.1,0.2,2,0.9l-0.8,2.6
			c-0.8-0.5-1.3-0.7-1.8-0.7c-1.1,0-1.8,1-2.5,2.8v4.1h-3v-9.5h3V34.4">
   </path>
   <path id="Fill-18" class="st1" d="M163.8,27.7c0.3,0.7-0.2,1.8-1.1,2.3c-0.9,0.5-1.9,0.4-2.1-0.4c-0.3-0.7,0.2-1.8,1.1-2.3
			C162.6,26.8,163.6,26.9,163.8,27.7">
   </path>
   <path id="Fill-19" class="st1" d="M137.5,35.1c0-2.6-1.8-3.6-3.5-3.6c-1.2,0-2.1,0.5-3,1.6h0v-6h-3v14h3v-6c0.7-1,1.3-1.4,2-1.4
			c0.9,0,1.5,0.7,1.5,2.1v3.3c1-0.5,2-0.8,3-0.9V35.1">
   </path>
   <path id="Fill-20" class="st1" d="M145,31.5c-1.2,0-2.1,0.5-3.1,1.5v-1.4h-3v6.5c1,0.1,2.4,0.6,3,1.4v-4.4
			c0.8-1.2,1.3-1.6,2.1-1.6c0.8,0,1.5,0.6,1.5,1.9v5.8h3v-6C148.5,32.3,146.5,31.5,145,31.5">
   </path>
   <polyline id="Fill-21" class="st1" points="150.1,43.9 146.6,43.9 146.6,46.4 150,46.4 150,47.4 146.6,47.4 146.6,50 150.2,50 
			150.2,51 145.5,51 145.5,42.8 150.1,42.8 150.1,43.9 		">
   </polyline>
   <polygon id="Fill-22" class="st1" points="152.9,51 154,51 154,42.8 152.9,42.8 		">
   </polygon>
   <path id="Fill-23" class="st1" d="M159.3,46.4c0.8,0,1.2,0.5,1.3,1.3h-2.7C158,46.9,158.5,46.4,159.3,46.4 M157.8,48.5h3.8
			c0-2-0.9-3-2.3-3c-1.5,0-2.5,1.1-2.5,2.7c0,1.5,0.9,2.9,2.6,2.9c0.9,0,1.5-0.2,2.2-0.6v-1c-0.6,0.4-1.2,0.7-1.9,0.7
			C158.6,50.1,158,49.6,157.8,48.5">
   </path>
   <path id="Fill-24" class="st1" d="M168.5,47c-0.6-0.4-1-0.5-1.5-0.5c-1,0-1.6,0.7-1.6,1.8c0,1.1,0.7,1.8,1.8,1.8
			c0.5,0,0.9-0.1,1.4-0.4v1c-0.4,0.2-1,0.3-1.6,0.3c-1.6,0-2.7-1.1-2.7-2.7c0-1.8,1-2.9,2.7-2.9c0.6,0,1,0.1,1.6,0.4V47">
   </path>
   <path id="Fill-25" class="st1" d="M173.4,45.6h1.7v1h-1.7v2.8c0,0.6,0.5,0.8,0.8,0.8c0.4,0,0.8-0.1,1.2-0.4v1
			c-0.4,0.2-0.9,0.4-1.3,0.4c-1.2,0-1.7-0.7-1.7-1.7v-2.8h-0.9v-0.1l2-2V45.6">
   </path>
   <path id="Fill-26" class="st1" d="M179.1,45.6v1.2h0c0.5-1,1.1-1.4,1.6-1.4c0.4,0,0.8,0.2,1.3,0.6l-0.6,0.9
			c-0.3-0.3-0.7-0.5-1-0.5c-0.7,0-1.3,0.7-1.3,1.7V51h-1.1v-5.4H179.1">
   </path>
   <path id="Fill-27" class="st1" d="M192.9,47c-0.6-0.4-1-0.5-1.5-0.5c-1,0-1.6,0.7-1.6,1.8c0,1.1,0.7,1.8,1.8,1.8
			c0.5,0,0.9-0.1,1.4-0.4v1c-0.4,0.2-1,0.3-1.6,0.3c-1.6,0-2.7-1.1-2.7-2.7c0-1.8,1-2.9,2.7-2.9c0.6,0,1,0.1,1.6,0.4V47">
   </path>
   <polygon id="Fill-28" class="st1" points="184.8,51 185.9,51 185.9,45.6 184.8,45.6 		">
   </polygon>
   <path id="Fill-29" class="st1" d="M185.9,43.7c0.1,0.3-0.1,0.6-0.4,0.8c-0.3,0.2-0.7,0.1-0.8-0.1c-0.1-0.3,0.1-0.6,0.4-0.8
			C185.5,43.4,185.8,43.4,185.9,43.7">
   </path>
   <path id="Fill-30" class="st1" d="M138.3,44.1c-0.2,0-0.3,0-0.3,0.1c0,0,0,0.1-0.1,0.1l-1,3.6c-0.2,1.3-1.8,2.5-3.8,2.5h-2.8
			l0.5-1.9h1.8c0.2,0,0.3-0.1,0.5-0.2c0-0.1,0.1-0.1,0.1-0.2l0.8-3.2c0.2-1.3,1.6-2.7,3.6-2.7h2.9l-0.4,1.7H138.3z M139,46.3
			l0.3-1.2h2.9c0.4-1.7,0.1-3.3-1-4.3c-2.1-2.1-6.4-1.4-9.7,1.7c-0.5,0.5-0.9,1-1.3,1.5h1.8l-0.4,1.2h-2.1c-0.2,0.4-0.4,0.7-0.5,1.1
			h2.5l-0.4,1.2h-2.5c-0.4,1.8-0.2,3.5,0.9,4.5c2.1,2.1,6.4,1.3,9.6-1.8c0.6-0.5,1-1.1,1.5-1.7h-2.3l0.3-1.2h2.7
			c0.2-0.4,0.4-0.7,0.5-1.1H139L139,46.3z">
   </path>
   <polygon id="Fill-31" class="st1" points="95.5,53.7 96.1,53.7 96.1,17.9 95.5,17.9 		">
   </polygon>
  </g>
 </g>
</svg>