<svg version="1.1" id="Layer_1" xmlns:x="ns_extend;" xmlns:i="ns_ai;" xmlns:graph="ns_graphs;" xmlns="http://www.w3.org/2000/svg" xmlns:xlink="http://www.w3.org/1999/xlink" x="0px" y="0px" viewBox="0 0 370.6 87" style="enable-background:new 0 0 370.6 87;" xml:space="preserve">
 <style type="text/css">
  .st0{fill:#4A6F68;}
 </style>
 <metadata>
  <sfw xmlns="ns_sfw;">
   <slices>
   </slices>
   <sliceSourceBounds bottomLeftOrigin="true" height="87" width="370.6" x="-110.3" y="-243.5">
   </sliceSourceBounds>
  </sfw>
 </metadata>
 <g>
  <path class="st0" d="M43.5,0C19.5,0,0,19.5,0,43.5C0,67.5,19.5,87,43.5,87C67.5,87,87,67.5,87,43.5C87,19.5,67.5,0,43.5,0z
		 M31.9,65.6h-9.7V37.4h9.7V65.6z M48.3,65.6h-9.7V37.4h9.7V65.6z M64.9,65.6h-9.7V37.4h9.7V65.6z M65.3,30.5H21.8v-9.2h43.5V30.5z">
  </path>
  <g>
   <path class="st0" d="M148.6,33.8h-9.1c-0.1-4.3-3.2-6.8-7.4-6.8c-3.6,0-7.8,1.4-7.8,5.7c0,9.8,25.7,3.3,25.7,19.4
			c0,9.9-8.5,14.4-17.5,14.4c-10.3,0-18.8-3.6-18.7-14.9h9.7c0,4.9,2.6,8.2,7.8,8.2c3.8,0,8.9-1.4,8.9-6c0-10.3-25.3-3.3-25.3-19.9
			c0-9.8,9.1-13.6,17.5-13.6C141.3,20.4,148,24.7,148.6,33.8z">
   </path>
   <path class="st0" d="M186.1,65.7L181.7,51c-1-3.2-1.6-6.5-2.3-9.7c-0.5,2.4-0.9,4.7-1.6,7l-0.7,2.4l-4.1,15h-10.9l-10.1-30.9h10.4
			l4.3,16.2l0.6,2.3l0.5,2.2c0.2,1.3,0.4,2.5,0.6,3.8c0.5-3.7,1.4-7.2,2.4-10.8l3.8-13.6h10.6l4,14.2c1,3.3,1.7,6.7,2.2,10.1
			l0.3-1.8c0.4-2.9,1.2-5.8,2.1-8.7l3.8-13.8h9.9l-10.6,30.9H186.1z">
   </path>
   <rect x="212.1" y="34.8" class="st0" width="9.2" height="30.9">
   </rect>
   <rect x="211.8" y="21.4" class="st0" width="9.8" height="7.6">
   </rect>
   <path class="st0" d="M252.4,42.9h-8.2c-0.2-2.3-2.3-3.4-4.4-3.4c-2,0-4.8,0.6-4.7,3.1c0.1,2,2.3,2.5,3.8,2.9l3.5,0.9
			c5.4,1.2,11.6,3.4,11.6,9.9c0,7.8-8,10.2-14.5,10.2c-6.4,0-12.6-2.8-13.1-9.7h8.5c0.3,2.7,2.4,4.1,5.1,4.1c2.4,0,5.4-1,5.4-3.8
			c0-5.9-18.4-1.7-18.4-13.6c0-7.2,7.3-9.6,13.3-9.6c5.6,0,11.2,2.3,12,8.3L252.4,42.9z">
   </path>
   <path class="st0" d="M282.7,42.9h-8.2c-0.2-2.3-2.3-3.4-4.4-3.4c-2,0-4.8,0.6-4.7,3.1c0.1,2,2.3,2.5,3.8,2.9l3.5,0.9
			c5.4,1.2,11.6,3.4,11.6,9.9c0,7.8-8,10.2-14.5,10.2c-6.4,0-12.6-2.8-13.1-9.7h8.5c0.3,2.7,2.4,4.1,5.1,4.1c2.4,0,5.4-1,5.4-3.8
			c0-5.9-18.4-1.7-18.4-13.6c0-7.2,7.3-9.6,13.3-9.6c5.6,0,11.2,2.3,12,8.3L282.7,42.9z">
   </path>
   <path class="st0" d="M326,43.7c5.5-1.6,9.6-4.9,9.6-11c0-8.5-7.9-11.4-15.3-11.4H302v44.3h9.5V47.7h7.4c8.5,0,6.5,11.9,7.8,17.9
			h10.4C332.5,57.3,338.2,46.1,326,43.7z M318.4,40.5h-6.9V28.3h7c3.9,0,7.2,1.7,7.2,6C325.6,38.7,322.4,40.5,318.4,40.5z">
   </path>
   <path class="st0" d="M356,60.9c-4.9,0-5.8-4.2-5.8-8.3h20.4c0-9.9-3.5-18.7-15-18.7c-9.9,0-14.9,8-14.9,17.1
			c0,9.5,5.7,15.5,15.2,15.5c6.5,0,13.1-2.7,13.6-10h-8.2C360.7,59.5,359,60.9,356,60.9z M355.4,39.5c4.6,0,5.5,3.8,5.7,7.5h-10.9
			C350.3,43.7,351.3,39.5,355.4,39.5z">
   </path>
  </g>
 </g>
</svg>